<svg
    xmlns="http://www.w3.org/2000/svg"
    xmlns:xlink="http://www.w3.org/1999/xlink"
    viewBox="0 0 1128 552">
    <defs>
     <svg id='consultations' width="20" height="20" viewBox="0 0 20 20" fill="none" xmlns="http://www.w3.org/2000/svg">
       <path d="M15 3.125H13.9583V2.5C13.9583 2.155 13.6783 1.875 13.3333 1.875C12.9883 1.875 12.7083 2.155 12.7083 2.5V3.125H7.29167V2.5C7.29167 2.155 7.01167 1.875 6.66667 1.875C6.32167 1.875 6.04167 2.155 6.04167 2.5V3.125H5C2.985 3.125 1.875 4.235 1.875 6.25V15C1.875 17.015 2.985 18.125 5 18.125H15C17.015 18.125 18.125 17.015 18.125 15V6.25C18.125 4.235 17.015 3.125 15 3.125ZM5 4.375H6.04167V5C6.04167 5.345 6.32167 5.625 6.66667 5.625C7.01167 5.625 7.29167 5.345 7.29167 5V4.375H12.7083V5C12.7083 5.345 12.9883 5.625 13.3333 5.625C13.6783 5.625 13.9583 5.345 13.9583 5V4.375H15C16.3142 4.375 16.875 4.93583 16.875 6.25V6.875H3.125V6.25C3.125 4.93583 3.68583 4.375 5 4.375ZM15 16.875H5C3.68583 16.875 3.125 16.3142 3.125 15V8.125H16.875V15C16.875 16.3142 16.3142 16.875 15 16.875ZM7.51668 10.8333C7.51668 11.2933 7.14418 11.6667 6.68335 11.6667C6.22335 11.6667 5.84574 11.2933 5.84574 10.8333C5.84574 10.3733 6.21501 10 6.67501 10H6.68335C7.14335 10 7.51668 10.3733 7.51668 10.8333ZM10.85 10.8333C10.85 11.2933 10.4775 11.6667 10.0167 11.6667C9.55668 11.6667 9.17908 11.2933 9.17908 10.8333C9.17908 10.3733 9.54834 10 10.0083 10H10.0167C10.4767 10 10.85 10.3733 10.85 10.8333ZM14.1833 10.8333C14.1833 11.2933 13.8108 11.6667 13.35 11.6667C12.89 11.6667 12.5124 11.2933 12.5124 10.8333C12.5124 10.3733 12.8817 10 13.3417 10H13.35C13.81 10 14.1833 10.3733 14.1833 10.8333ZM7.51668 14.1667C7.51668 14.6267 7.14418 15 6.68335 15C6.22335 15 5.84574 14.6267 5.84574 14.1667C5.84574 13.7067 6.21501 13.3333 6.67501 13.3333H6.68335C7.14335 13.3333 7.51668 13.7067 7.51668 14.1667ZM10.85 14.1667C10.85 14.6267 10.4775 15 10.0167 15C9.55668 15 9.17908 14.6267 9.17908 14.1667C9.17908 13.7067 9.54834 13.3333 10.0083 13.3333H10.0167C10.4767 13.3333 10.85 13.7067 10.85 14.1667ZM14.1833 14.1667C14.1833 14.6267 13.8108 15 13.35 15C12.89 15 12.5124 14.6267 12.5124 14.1667C12.5124 13.7067 12.8817 13.3333 13.3417 13.3333H13.35C13.81 13.3333 14.1833 13.7067 14.1833 14.1667Z" fill="currentColor"/>
    </svg> 

    <svg id='logout' width="20" height="20" viewBox="0 0 20 20" fill="none" xmlns="http://www.w3.org/2000/svg">
       <path d="M13.125 14.1667V15C13.125 17.015 12.015 18.125 10 18.125H5C2.985 18.125 1.875 17.015 1.875 15V5C1.875 2.985 2.985 1.875 5 1.875H10C12.015 1.875 13.125 2.985 13.125 5V5.83333C13.125 6.17833 12.845 6.45833 12.5 6.45833C12.155 6.45833 11.875 6.17833 11.875 5.83333V5C11.875 3.68583 11.3142 3.125 10 3.125H5C3.68583 3.125 3.125 3.68583 3.125 5V15C3.125 16.3142 3.68583 16.875 5 16.875H10C11.3142 16.875 11.875 16.3142 11.875 15V14.1667C11.875 13.8217 12.155 13.5417 12.5 13.5417C12.845 13.5417 13.125 13.8217 13.125 14.1667ZM18.0767 10.2392C18.14 10.0867 18.14 9.91416 18.0767 9.76166C18.045 9.68499 17.9992 9.61583 17.9417 9.55833L15.4417 7.05833C15.1975 6.81417 14.8017 6.81417 14.5575 7.05833C14.3133 7.3025 14.3133 7.69834 14.5575 7.9425L15.9909 9.37584H6.66667C6.32167 9.37584 6.04167 9.65584 6.04167 10.0008C6.04167 10.3458 6.32167 10.6258 6.66667 10.6258H15.9909L14.5575 12.0592C14.3133 12.3033 14.3133 12.6992 14.5575 12.9433C14.6792 13.065 14.8392 13.1267 14.9992 13.1267C15.1592 13.1267 15.3192 13.0658 15.4408 12.9433L17.9408 10.4433C17.9992 10.3842 18.045 10.315 18.0767 10.2392Z" fill="currentColor"/>
    </svg>

    <svg  id='admissions' width="20" height="20" viewBox="0 0 20 20" fill="none" xmlns="http://www.w3.org/2000/svg">
       <path d="M15 2.7085H5C2.985 2.7085 1.875 3.8185 1.875 5.8335V14.1668C1.875 16.1818 2.985 17.2918 5 17.2918H15C17.015 17.2918 18.125 16.1818 18.125 14.1668V5.8335C18.125 3.8185 17.015 2.7085 15 2.7085ZM16.875 14.1668C16.875 15.481 16.3142 16.0418 15 16.0418H5C3.68583 16.0418 3.125 15.481 3.125 14.1668V10.6252H6.66667C6.87583 10.6252 7.07085 10.521 7.18669 10.3468L8.14412 8.91007L9.40664 12.6977C9.48247 12.9235 9.68002 13.0876 9.91669 13.1193C9.94419 13.1234 9.97167 13.1252 10 13.1252C10.2075 13.1252 10.4025 13.0218 10.52 12.8468L12.0008 10.6252H13.3333C13.6783 10.6252 13.9583 10.3452 13.9583 10.0002C13.9583 9.65516 13.6783 9.37516 13.3333 9.37516H11.6667C11.4575 9.37516 11.2625 9.47932 11.1466 9.65348L10.1892 11.0903L8.9267 7.30261C8.85086 7.07678 8.65331 6.91273 8.41665 6.88106C8.17831 6.84606 7.94665 6.95432 7.81331 7.15348L6.3325 9.37516H3.125V5.8335C3.125 4.51933 3.68583 3.9585 5 3.9585H15C16.3142 3.9585 16.875 4.51933 16.875 5.8335V14.1668Z" fill="currentColor"/>
    </svg>

    <svg id='groomings' width="20" height="20" viewBox="0 0 20 20" fill="none" xmlns="http://www.w3.org/2000/svg">
        <path d="M7.60417 6.72083C7.93167 6.22667 8.125 5.63583 8.125 5C8.125 3.27667 6.72333 1.875 5 1.875C3.27667 1.875 1.875 3.27667 1.875 5C1.875 6.72333 3.27667 8.125 5 8.125C5.63583 8.125 6.22667 7.93167 6.72083 7.60417L9.11667 10L6.72083 12.3958C6.22667 12.0683 5.63583 11.875 5 11.875C3.27667 11.875 1.875 13.2767 1.875 15C1.875 16.7233 3.27667 18.125 5 18.125C6.72333 18.125 8.125 16.7233 8.125 15C8.125 14.3642 7.93167 13.7733 7.60417 13.2792L10 10.8833L16.225 17.1083C16.3467 17.23 16.5067 17.2917 16.6667 17.2917C16.8267 17.2917 16.9867 17.2308 17.1083 17.1083C17.3525 16.8642 17.3525 16.4683 17.1083 16.2242L7.60417 6.72083ZM5 16.875C3.96583 16.875 3.125 16.0342 3.125 15C3.125 13.9658 3.96583 13.125 5 13.125C5.51667 13.125 5.98416 13.335 6.32416 13.6733L6.32503 13.675L6.32665 13.6758C6.66582 14.015 6.875 14.4833 6.875 15C6.875 16.0342 6.03417 16.875 5 16.875ZM3.125 5C3.125 3.96583 3.96583 3.125 5 3.125C6.03417 3.125 6.875 3.96583 6.875 5C6.875 5.51667 6.66498 5.98416 6.32665 6.32416L6.32503 6.325L6.32416 6.32667C5.98499 6.66501 5.51667 6.875 5 6.875C3.96583 6.875 3.125 6.03417 3.125 5ZM11.6417 8.35833C11.3975 8.11417 11.3975 7.71833 11.6417 7.47416L16.225 2.89083C16.4692 2.64666 16.865 2.64666 17.1092 2.89083C17.3533 3.13499 17.3533 3.53083 17.1092 3.775L12.5258 8.35833C12.4042 8.48 12.2442 8.54167 12.0842 8.54167C11.9242 8.54167 11.7633 8.48083 11.6417 8.35833Z" fill="currentColor"/>
    </svg>

    <svg id='registrations' width="20" height="20" viewBox="0 0 20 20" fill="none" xmlns="http://www.w3.org/2000/svg">
         <path d="M18.9584 9.99984C18.9584 5.05984 14.94 1.0415 10 1.0415C5.06002 1.0415 1.04169 5.05984 1.04169 9.99984C1.04169 12.8915 2.42418 15.4599 4.55752 17.099C4.56085 17.1024 4.56588 17.104 4.56921 17.1074C6.07838 18.2632 7.9575 18.9582 10.0008 18.9582C12.0442 18.9582 13.9234 18.2632 15.4326 17.1074C15.4359 17.104 15.4408 17.1024 15.4442 17.099C17.5758 15.4599 18.9584 12.8915 18.9584 9.99984ZM2.29169 9.99984C2.29169 5.749 5.74919 2.2915 10 2.2915C14.2509 2.2915 17.7084 5.749 17.7084 9.99984C17.7084 12.1023 16.86 14.0099 15.49 15.4016C15.1159 13.8174 13.9183 12.3498 11.425 12.3498H8.57505C6.08172 12.3498 4.88334 13.8174 4.51001 15.4016C3.14001 14.0099 2.29169 12.1023 2.29169 9.99984ZM5.63255 16.3448C5.68088 15.4898 6.07172 13.5998 8.57505 13.5998H11.425C13.9283 13.5998 14.3192 15.4898 14.3675 16.3448C13.125 17.2032 11.6209 17.7082 10 17.7082C8.37919 17.7082 6.87505 17.2023 5.63255 16.3448ZM10.0067 11.4582C11.7292 11.4582 13.1317 10.0565 13.1317 8.33317C13.1317 6.60984 11.7292 5.20817 10.0067 5.20817C8.28423 5.20817 6.88173 6.60984 6.88173 8.33317C6.88173 10.0565 8.2834 11.4582 10.0067 11.4582ZM10.0067 6.45817C11.0401 6.45817 11.8817 7.299 11.8817 8.33317C11.8817 9.36734 11.0401 10.2082 10.0067 10.2082C8.9734 10.2082 8.13173 9.36734 8.13173 8.33317C8.13173 7.299 8.9734 6.45817 10.0067 6.45817Z" fill="currentColor"/>
    </svg>
    
    <svg id='inventory' width="20" height="20" viewBox="0 0 20 20" fill="none" xmlns="http://www.w3.org/2000/svg">
         <path d="M15 2.70703H5C2.985 2.70703 1.875 3.81703 1.875 5.83203V14.1654C1.875 16.1804 2.985 17.2904 5 17.2904H15C17.015 17.2904 18.125 16.1804 18.125 14.1654V5.83203C18.125 3.81703 17.015 2.70703 15 2.70703ZM5 3.95703H15C16.3142 3.95703 16.875 4.51786 16.875 5.83203V7.70703H3.125V5.83203C3.125 4.51786 3.68583 3.95703 5 3.95703ZM11.875 8.95703V16.0404H8.125V8.95703H11.875ZM3.125 14.1654V8.95703H6.875V16.0404H5C3.68583 16.0404 3.125 15.4795 3.125 14.1654ZM15 16.0404H13.125V8.95703H16.875V14.1654C16.875 15.4795 16.3142 16.0404 15 16.0404Z" fill="currentColor"/>
    </svg>

    <svg id='reminders' width="20" height="20" viewBox="0 0 20 20" fill="none" xmlns="http://www.w3.org/2000/svg">
       <path d="M10.0042 18.125C9.18083 18.125 8.44 17.6975 8.0225 16.9808C7.84917 16.6825 7.94999 16.3 8.24833 16.1267C8.54583 15.9525 8.92917 16.0533 9.1025 16.3525C9.48417 17.0067 10.5233 17.0083 10.9058 16.3525C11.08 16.0542 11.4633 15.9542 11.7608 16.1275C12.0592 16.3008 12.16 16.6842 11.9858 16.9825C11.5675 17.6975 10.8275 18.125 10.0042 18.125ZM17.23 15.2708C17.3342 15.0542 17.305 14.7975 17.155 14.61C17.14 14.5908 15.6258 12.6717 15.6258 10.4175V8.33333C15.6258 7.98833 15.3458 7.70833 15.0008 7.70833C14.6558 7.70833 14.3758 7.98833 14.3758 8.33333V10.4167C14.3758 12.03 14.9992 13.465 15.5133 14.375H4.48916C5.00333 13.465 5.62667 12.03 5.62667 10.4167V7.5C5.62667 5.0875 7.58917 3.125 10.0017 3.125C10.3467 3.125 10.6267 2.845 10.6267 2.5C10.6267 2.155 10.3467 1.875 10.0017 1.875C6.9 1.875 4.37667 4.39833 4.37667 7.5V10.4167C4.37667 12.6575 2.86167 14.5908 2.84667 14.61C2.6975 14.7975 2.66833 15.055 2.77333 15.2708C2.8775 15.4867 3.09583 15.625 3.33583 15.625H16.6692C16.9067 15.625 17.1258 15.4875 17.23 15.2708ZM16.4583 4.16667C16.4583 2.90333 15.4308 1.875 14.1667 1.875C12.9025 1.875 11.875 2.90333 11.875 4.16667C11.875 5.43 12.9025 6.45833 14.1667 6.45833C15.4308 6.45833 16.4583 5.43 16.4583 4.16667ZM15.2083 4.16667C15.2083 4.74083 14.7408 5.20833 14.1667 5.20833C13.5925 5.20833 13.125 4.74083 13.125 4.16667C13.125 3.5925 13.5925 3.125 14.1667 3.125C14.7408 3.125 15.2083 3.5925 15.2083 4.16667Z" fill="currentColor"/>
    </svg>

    <svg id='payments' width="20" height="20" viewBox="0 0 20 20" fill="none" xmlns="http://www.w3.org/2000/svg">
        <path d="M15.625 5.2475V5C15.625 2.985 14.515 1.875 12.5 1.875H4.16667C2.9025 1.875 1.875 2.9025 1.875 4.16667V15C1.875 17.015 2.985 18.125 5 18.125H15C17.015 18.125 18.125 17.015 18.125 15V8.33333C18.125 6.5375 17.2433 5.46083 15.625 5.2475ZM16.875 13.125H13.75C12.9458 13.125 12.2917 12.4708 12.2917 11.6667C12.2917 10.8625 12.9458 10.2083 13.75 10.2083H16.875V13.125ZM4.16667 3.125H12.5C13.8142 3.125 14.375 3.68583 14.375 5V5.20833H4.16667C3.5925 5.20833 3.125 4.74083 3.125 4.16667C3.125 3.5925 3.5925 3.125 4.16667 3.125ZM15 16.875H5C3.68583 16.875 3.125 16.3142 3.125 15V6.20748C3.4375 6.36748 3.79167 6.45833 4.16667 6.45833H15C16.3142 6.45833 16.875 7.01917 16.875 8.33333V8.95833H13.75C12.2567 8.95833 11.0417 10.1733 11.0417 11.6667C11.0417 13.16 12.2567 14.375 13.75 14.375H16.875V15C16.875 16.3142 16.3142 16.875 15 16.875ZM14.175 10.8333H14.1833C14.6442 10.8333 15.0167 11.2067 15.0167 11.6667C15.0167 12.1267 14.6442 12.5 14.1833 12.5C13.7233 12.5 13.3458 12.1267 13.3458 11.6667C13.3458 11.2067 13.715 10.8333 14.175 10.8333Z" fill="currentColor"/>
    </svg>

    <svg id='reportsAndMis' width="20" height="20" viewBox="0 0 20 20" fill="none" xmlns="http://www.w3.org/2000/svg">
        <path d="M18.125 17.5C18.125 17.845 17.845 18.125 17.5 18.125H2.5C2.155 18.125 1.875 17.845 1.875 17.5C1.875 17.155 2.155 16.875 2.5 16.875H17.5C17.845 16.875 18.125 17.155 18.125 17.5ZM7.70833 13.75V3.75C7.70833 2.57583 8.40917 1.875 9.58333 1.875H10.4167C11.5908 1.875 12.2917 2.57583 12.2917 3.75V13.75C12.2917 14.9242 11.5908 15.625 10.4167 15.625H9.58333C8.40917 15.625 7.70833 14.9242 7.70833 13.75ZM8.95833 13.75C8.95833 14.2408 9.0925 14.375 9.58333 14.375H10.4167C10.9075 14.375 11.0417 14.2408 11.0417 13.75V3.75C11.0417 3.25917 10.9075 3.125 10.4167 3.125H9.58333C9.0925 3.125 8.95833 3.25917 8.95833 3.75V13.75ZM18.125 7.08333V13.75C18.125 14.9242 17.4242 15.625 16.25 15.625H15.4167C14.2425 15.625 13.5417 14.9242 13.5417 13.75V7.08333C13.5417 5.90917 14.2425 5.20833 15.4167 5.20833H16.25C17.4242 5.20833 18.125 5.90917 18.125 7.08333ZM16.875 7.08333C16.875 6.5925 16.7408 6.45833 16.25 6.45833H15.4167C14.9258 6.45833 14.7917 6.5925 14.7917 7.08333V13.75C14.7917 14.2408 14.9258 14.375 15.4167 14.375H16.25C16.7408 14.375 16.875 14.2408 16.875 13.75V7.08333ZM1.875 13.75V9.58333C1.875 8.40917 2.57583 7.70833 3.75 7.70833H4.58333C5.7575 7.70833 6.45833 8.40917 6.45833 9.58333V13.75C6.45833 14.9242 5.7575 15.625 4.58333 15.625H3.75C2.57583 15.625 1.875 14.9242 1.875 13.75ZM3.125 13.75C3.125 14.2408 3.25917 14.375 3.75 14.375H4.58333C5.07417 14.375 5.20833 14.2408 5.20833 13.75V9.58333C5.20833 9.0925 5.07417 8.95833 4.58333 8.95833H3.75C3.25917 8.95833 3.125 9.0925 3.125 9.58333V13.75Z" fill="currentColor"/>
    </svg>

    <svg id='profile' width="20" height="20" viewBox="0 0 20 20" fill="none" xmlns="http://www.w3.org/2000/svg">
       <path d="M10 18.9584C9.93333 18.9584 9.86662 18.9475 9.80245 18.9259C8.47828 18.4842 1.875 15.935 1.875 9.07338V4.16676C1.875 3.86926 2.08502 3.61167 2.37752 3.55417C6.44419 2.74084 7.88588 2.02592 9.71171 1.12009C9.88838 1.03259 10.1216 1.02099 10.2966 1.10849C12.0958 2.01599 13.5175 2.7325 17.6233 3.55417C17.9158 3.6125 18.1258 3.86926 18.1258 4.16676V9.07419C18.1258 15.9359 11.5225 18.485 10.1984 18.9267C10.1334 18.9475 10.0667 18.9584 10 18.9584ZM3.125 4.67681V9.07338C3.125 14.7942 8.47333 17.1235 10 17.671C11.5267 17.1235 16.875 14.7934 16.875 9.07338V4.67681C13.1892 3.90514 11.6399 3.1825 10.0124 2.365C8.28158 3.22084 6.77917 3.91348 3.125 4.67681ZM10.0051 10.0418C8.90259 10.0418 8.00578 9.14418 8.00578 8.04168C8.00578 6.93918 8.90259 6.04176 10.0051 6.04176C11.1076 6.04176 12.005 6.93918 12.005 8.04168C12.005 9.14418 11.1076 10.0418 10.0051 10.0418ZM10.0051 7.29176C9.59175 7.29176 9.25578 7.62835 9.25578 8.04168C9.25578 8.45501 9.59175 8.7918 10.0051 8.7918C10.4184 8.7918 10.755 8.45501 10.755 8.04168C10.755 7.62835 10.4184 7.29176 10.0051 7.29176ZM12.5 13.9584C12.155 13.9584 11.875 13.6784 11.875 13.3334V13.0809C11.875 12.4809 11.4609 11.8751 10.5351 11.8751H9.46574C8.53991 11.8751 8.12581 12.4809 8.12581 13.0809V13.3334C8.12581 13.6784 7.84581 13.9584 7.50081 13.9584C7.15581 13.9584 6.87581 13.6784 6.87581 13.3334V13.0809C6.87581 11.8609 7.76491 10.6251 9.46574 10.6251H10.5351C12.2359 10.6251 13.125 11.8601 13.125 13.0809V13.3334C13.125 13.6784 12.845 13.9584 12.5 13.9584Z" fill="currentColor"/>
    </svg>

    <svg id='settings' width="20" height="20" viewBox="0 0 20 20" fill="none" xmlns="http://www.w3.org/2000/svg">
        <path d="M10 6.875C8.27671 6.875 6.87504 8.27667 6.87504 10C6.87504 11.7233 8.27671 13.125 10 13.125C11.7234 13.125 13.125 11.7233 13.125 10C13.125 8.27667 11.7234 6.875 10 6.875ZM10 11.875C8.96587 11.875 8.12504 11.0342 8.12504 10C8.12504 8.96583 8.96587 8.125 10 8.125C11.0342 8.125 11.875 8.96583 11.875 10C11.875 11.0342 11.0342 11.875 10 11.875ZM17.6734 11.6275C17.095 11.2925 16.735 10.6692 16.7342 10C16.7334 9.3325 17.0909 8.71001 17.6767 8.37084C18.1059 8.12168 18.2525 7.56915 18.0042 7.13915L16.6109 4.73417C16.3626 4.305 15.81 4.15751 15.38 4.40501C14.7975 4.74084 14.0734 4.74084 13.4892 4.40168C12.9134 4.06751 12.555 3.44667 12.555 2.78084C12.555 2.28167 12.1484 1.87584 11.6492 1.87584H8.35336C7.85336 1.87584 7.44755 2.28167 7.44755 2.78084C7.44755 3.44667 7.0892 4.0675 6.5117 4.40333C5.9292 4.74083 5.20587 4.74166 4.62337 4.40582C4.19254 4.15749 3.64088 4.30584 3.39255 4.73501L1.99754 7.14251C1.74921 7.57168 1.8967 8.12332 2.33003 8.37499C2.90753 8.70916 3.26754 9.33166 3.26921 9.99916C3.27087 10.6675 2.91254 11.2917 2.32754 11.6308C2.1192 11.7517 1.96921 11.9458 1.90754 12.1792C1.84587 12.4117 1.87755 12.6542 1.99838 12.8633L3.39087 15.2667C3.6392 15.6967 4.19171 15.8458 4.62337 15.5967C5.20587 15.2608 5.92838 15.2617 6.50255 15.5942L6.5042 15.595C6.5067 15.5967 6.50921 15.5983 6.51254 15.6C7.08837 15.9342 7.44586 16.555 7.44503 17.2217C7.44503 17.7208 7.85086 18.1267 8.35003 18.1267H11.6492C12.1484 18.1267 12.5542 17.7208 12.5542 17.2225C12.5542 16.5558 12.9125 15.935 13.4909 15.5992C14.0725 15.2617 14.7959 15.26 15.3792 15.5967C15.8092 15.845 16.3609 15.6975 16.61 15.2683L18.005 12.8608C18.2525 12.43 18.105 11.8775 17.6734 11.6275ZM15.6925 14.3558C14.7842 13.96 13.73 14.0142 12.8617 14.5167C12.0009 15.0158 11.4325 15.8983 11.3225 16.875H8.67504C8.56671 15.8983 7.9967 15.0142 7.13586 14.5158C6.2692 14.0133 5.21338 13.96 4.30754 14.3558L3.24421 12.52C4.04004 11.9342 4.52086 10.9942 4.51753 9.99418C4.51503 9.00084 4.03504 8.0675 3.24337 7.48166L4.30754 5.64499C5.21421 6.03999 6.27005 5.98666 7.13838 5.48332C7.99838 4.98499 8.56669 4.10167 8.67669 3.12584H11.3225C11.4317 4.10251 12.0009 4.985 12.8634 5.485C13.7292 5.9875 14.785 6.04083 15.6925 5.64583L16.7567 7.48166C15.9625 8.06666 15.4825 9.005 15.4842 10.0033C15.485 10.9983 15.965 11.9333 16.7575 12.5208L15.6925 14.3558Z" fill="currentColor"/>
    </svg>

    <svg id='cross' width="11" height="11" viewBox="0 0 11 11" fill="none" xmlns="http://www.w3.org/2000/svg">
        <path d="M10.0348 9.29861C10.2383 9.50208 10.2383 9.83197 10.0348 10.0354C9.9334 10.1368 9.80007 10.1882 9.66674 10.1882C9.5334 10.1882 9.40007 10.1375 9.29868 10.0354L5.50007 6.23681L1.70146 10.0354C1.60007 10.1368 1.46674 10.1882 1.3334 10.1882C1.20007 10.1882 1.06674 10.1375 0.965348 10.0354C0.761876 9.83197 0.761876 9.50208 0.965348 9.29861L4.76396 5.50002L0.965348 1.70143C0.761876 1.49796 0.761876 1.16807 0.965348 0.964601C1.16882 0.761128 1.49868 0.761128 1.70216 0.964601L5.50077 4.76323L9.29937 0.964601C9.50284 0.761128 9.83271 0.761128 10.0362 0.964601C10.2397 1.16807 10.2397 1.49796 10.0362 1.70143L6.23757 5.50002L10.0348 9.29861Z" fill="currentColor"/>
    </svg>

    <svg id='calender' width="25" height="25" viewBox="0 0 25 25" fill="none" xmlns="http://www.w3.org/2000/svg">
        <path d="M18.75 3.90625H17.4479V3.125C17.4479 2.69375 17.0979 2.34375 16.6667 2.34375C16.2354 2.34375 15.8854 2.69375 15.8854 3.125V3.90625H9.11458V3.125C9.11458 2.69375 8.76458 2.34375 8.33333 2.34375C7.90208 2.34375 7.55208 2.69375 7.55208 3.125V3.90625H6.25C3.73125 3.90625 2.34375 5.29375 2.34375 7.8125V18.75C2.34375 21.2687 3.73125 22.6562 6.25 22.6562H18.75C21.2687 22.6562 22.6562 21.2687 22.6562 18.75V7.8125C22.6562 5.29375 21.2687 3.90625 18.75 3.90625ZM6.25 5.46875H7.55208V6.25C7.55208 6.68125 7.90208 7.03125 8.33333 7.03125C8.76458 7.03125 9.11458 6.68125 9.11458 6.25V5.46875H15.8854V6.25C15.8854 6.68125 16.2354 7.03125 16.6667 7.03125C17.0979 7.03125 17.4479 6.68125 17.4479 6.25V5.46875H18.75C20.3927 5.46875 21.0938 6.16979 21.0938 7.8125V8.59375H3.90625V7.8125C3.90625 6.16979 4.60729 5.46875 6.25 5.46875ZM18.75 21.0938H6.25C4.60729 21.0938 3.90625 20.3927 3.90625 18.75V10.1562H21.0938V18.75C21.0938 20.3927 20.3927 21.0938 18.75 21.0938ZM9.39585 13.5417C9.39585 14.1167 8.93023 14.5833 8.35419 14.5833C7.77919 14.5833 7.30718 14.1167 7.30718 13.5417C7.30718 12.9667 7.76876 12.5 8.34376 12.5H8.35419C8.92919 12.5 9.39585 12.9667 9.39585 13.5417ZM13.5625 13.5417C13.5625 14.1167 13.0969 14.5833 12.5209 14.5833C11.9459 14.5833 11.4738 14.1167 11.4738 13.5417C11.4738 12.9667 11.9354 12.5 12.5104 12.5H12.5209C13.0959 12.5 13.5625 12.9667 13.5625 13.5417ZM17.7292 13.5417C17.7292 14.1167 17.2636 14.5833 16.6875 14.5833C16.1125 14.5833 15.6405 14.1167 15.6405 13.5417C15.6405 12.9667 16.1021 12.5 16.6771 12.5H16.6875C17.2625 12.5 17.7292 12.9667 17.7292 13.5417ZM9.39585 17.7083C9.39585 18.2833 8.93023 18.75 8.35419 18.75C7.77919 18.75 7.30718 18.2833 7.30718 17.7083C7.30718 17.1333 7.76876 16.6667 8.34376 16.6667H8.35419C8.92919 16.6667 9.39585 17.1333 9.39585 17.7083ZM13.5625 17.7083C13.5625 18.2833 13.0969 18.75 12.5209 18.75C11.9459 18.75 11.4738 18.2833 11.4738 17.7083C11.4738 17.1333 11.9354 16.6667 12.5104 16.6667H12.5209C13.0959 16.6667 13.5625 17.1333 13.5625 17.7083ZM17.7292 17.7083C17.7292 18.2833 17.2636 18.75 16.6875 18.75C16.1125 18.75 15.6405 18.2833 15.6405 17.7083C15.6405 17.1333 16.1021 16.6667 16.6771 16.6667H16.6875C17.2625 16.6667 17.7292 17.1333 17.7292 17.7083Z" fill="currentColor"/>
    </svg>

    <svg id='clock' width="25" height="25" viewBox="0 0 25 25" fill="none" xmlns="http://www.w3.org/2000/svg">
        <path d="M18.3312 8.2948L19.3032 7.32295C19.6084 7.01774 19.6084 6.52291 19.3032 6.2177C18.998 5.91249 18.5032 5.91249 18.198 6.2177L17.1792 7.23648C15.7334 6.13231 13.9345 5.46875 11.9792 5.46875C7.24071 5.46875 3.3855 9.32396 3.3855 14.0625C3.3855 18.801 7.24071 22.6562 11.9792 22.6562C16.7178 22.6562 20.573 18.801 20.573 14.0625C20.573 11.8417 19.7187 9.82189 18.3312 8.2948ZM11.9792 21.0938C8.10216 21.0938 4.948 17.9396 4.948 14.0625C4.948 10.1854 8.10216 7.03125 11.9792 7.03125C15.8563 7.03125 19.0105 10.1854 19.0105 14.0625C19.0105 17.9396 15.8563 21.0938 11.9792 21.0938ZM14.5313 15C14.8761 15.2594 14.946 15.7489 14.6867 16.0937C14.5346 16.2979 14.2991 16.4062 14.0605 16.4062C13.898 16.4062 13.7335 16.3552 13.5929 16.25L11.5095 14.6875C11.3137 14.5396 11.197 14.3083 11.197 14.0625V10.4167C11.197 9.98542 11.547 9.63542 11.9782 9.63542C12.4095 9.63542 12.7595 9.98542 12.7595 10.4167V13.6719L14.5313 15ZM8.59383 3.125C8.59383 2.69375 8.94383 2.34375 9.37508 2.34375H14.5834C15.0147 2.34375 15.3647 2.69375 15.3647 3.125C15.3647 3.55625 15.0147 3.90625 14.5834 3.90625H9.37508C8.94383 3.90625 8.59383 3.55625 8.59383 3.125Z" fill="currentColor"/>
    </svg>

    </defs>
</svg>